# xmcd CD database file
# Copyright (C) 1995-1998 Ti Kan
#
# Track frame offsets:
#	183
#	18870
#	47308
#	80048
#
# Disc length: 1337 seconds
#
# Revision: 2
# Processed by: cddbd v1.4PL0 Copyright (c) Steve Scherf et al.
# Submitted via: CDex 1.30Release
#
DISCID=21053704
DTITLE=Paul Personne - Comme à la ville (live)
DYEAR=1994
DGENRE=Blues
TTITLE0=Le role... on l'a d'ja
TTITLE1=general Lee
TTITLE2=serenity sreet
TTITLE3=quelqu'un appelle
EXTD=YEAR: 1994 ID3G:   0
EXTT0=
EXTT1=
EXTT2=
EXTT3=
PLAYORDER=
